<svg data-v-423bf9ae="" xmlns="http://www.w3.org/2000/svg" viewBox="0 0 361 105" class="iconLeft"><!----><!----><!----><g data-v-423bf9ae="" id="d33f3a71-5f5e-478e-9406-8c7685188ce3" fill="#0C3D33" transform="matrix(4.444444444444445,0,0,4.444444444444445,74.7474228673511,12.678225596745804)"><path d="M6.17 9.42L6.17 9.42L6.17 9.42Q6.17 8.15 5.54 7.46L5.54 7.46L5.54 7.46Q4.91 6.78 3.86 6.78L3.86 6.78L3.86 6.78Q3.28 6.78 2.95 6.82L2.95 6.82L2.95 6.82Q2.62 6.86 2.42 6.92L2.42 6.92L2.42 11.51L2.42 11.51Q2.66 11.70 3.11 11.89L3.11 11.89L3.11 11.89Q3.56 12.07 4.09 12.07L4.09 12.07L4.09 12.07Q4.65 12.07 5.05 11.87L5.05 11.87L5.05 11.87Q5.45 11.66 5.70 11.30L5.70 11.30L5.70 11.30Q5.95 10.95 6.06 10.46L6.06 10.46L6.06 10.46Q6.17 9.98 6.17 9.42ZM7.53 9.42L7.53 9.42L7.53 9.42Q7.53 10.25 7.32 10.95L7.32 10.95L7.32 10.95Q7.10 11.65 6.68 12.15L6.68 12.15L6.68 12.15Q6.26 12.66 5.65 12.94L5.65 12.94L5.65 12.94Q5.04 13.22 4.26 13.22L4.26 13.22L4.26 13.22Q3.63 13.22 3.14 13.05L3.14 13.05L3.14 13.05Q2.66 12.88 2.42 12.73L2.42 12.73L2.42 15.64L1.12 15.64L1.12 5.99L1.12 5.99Q1.58 5.88 2.27 5.75L2.27 5.75L2.27 5.75Q2.97 5.61 3.88 5.61L3.88 5.61L3.88 5.61Q4.72 5.61 5.39 5.88L5.39 5.88L5.39 5.88Q6.06 6.15 6.54 6.64L6.54 6.64L6.54 6.64Q7.01 7.13 7.27 7.83L7.27 7.83L7.27 7.83Q7.53 8.54 7.53 9.42ZM15.16 5.77L15.16 12.84L15.16 12.84Q14.71 12.95 13.98 13.08L13.98 13.08L13.98 13.08Q13.24 13.20 12.28 13.20L12.28 13.20L12.28 13.20Q11.44 13.20 10.86 12.96L10.86 12.96L10.86 12.96Q10.29 12.71 9.94 12.26L9.94 12.26L9.94 12.26Q9.59 11.82 9.44 11.21L9.44 11.21L9.44 11.21Q9.28 10.60 9.28 9.86L9.28 9.86L9.28 5.77L10.58 5.77L10.58 9.58L10.58 9.58Q10.58 10.91 11.00 11.48L11.00 11.48L11.00 11.48Q11.42 12.05 12.42 12.05L12.42 12.05L12.42 12.05Q12.63 12.05 12.85 12.04L12.85 12.04L12.85 12.04Q13.08 12.03 13.27 12.01L13.27 12.01L13.27 12.01Q13.47 11.98 13.63 11.96L13.63 11.96L13.63 11.96Q13.79 11.94 13.86 11.91L13.86 11.91L13.86 5.77L15.16 5.77ZM18.70 2.18L18.70 6.09L18.70 6.09Q18.94 5.94 19.43 5.77L19.43 5.77L19.43 5.77Q19.91 5.60 20.54 5.60L20.54 5.60L20.54 5.60Q21.32 5.60 21.93 5.88L21.93 5.88L21.93 5.88Q22.54 6.16 22.96 6.66L22.96 6.66L22.96 6.66Q23.38 7.17 23.60 7.87L23.60 7.87L23.60 7.87Q23.81 8.57 23.81 9.41L23.81 9.41L23.81 9.41Q23.81 10.29 23.55 11.00L23.55 11.00L23.55 11.00Q23.30 11.70 22.82 12.19L22.82 12.19L22.82 12.19Q22.34 12.68 21.67 12.95L21.67 12.95L21.67 12.95Q21 13.22 20.16 13.22L20.16 13.22L20.16 13.22Q19.25 13.22 18.55 13.09L18.55 13.09L18.55 13.09Q17.85 12.96 17.40 12.84L17.40 12.84L17.40 2.41L18.70 2.18ZM18.70 7.31L18.70 11.91L18.70 11.91Q18.90 11.97 19.26 12.02L19.26 12.02L19.26 12.02Q19.61 12.07 20.15 12.07L20.15 12.07L20.15 12.07Q21.20 12.07 21.83 11.38L21.83 11.38L21.83 11.38Q22.46 10.68 22.46 9.41L22.46 9.41L22.46 9.41Q22.46 8.85 22.34 8.36L22.34 8.36L22.34 8.36Q22.23 7.87 21.98 7.51L21.98 7.51L21.98 7.51Q21.73 7.15 21.33 6.95L21.33 6.95L21.33 6.95Q20.93 6.75 20.37 6.75L20.37 6.75L20.37 6.75Q19.84 6.75 19.39 6.93L19.39 6.93L19.39 6.93Q18.94 7.11 18.70 7.31L18.70 7.31ZM33.45 12.63L33.45 12.32L33.45 12.32Q33.28 12.43 32.80 12.61L32.80 12.61L32.80 12.61Q32.31 12.78 31.67 12.78L31.67 12.78L31.67 12.78Q31.01 12.78 30.43 12.57L30.43 12.57L30.43 12.57Q29.85 12.36 29.41 11.92L29.41 11.92L29.41 11.92Q28.98 11.48 28.73 10.82L28.73 10.82L28.73 10.82Q28.48 10.16 28.48 9.25L28.48 9.25L28.48 9.25Q28.48 8.46 28.71 7.79L28.71 7.79L28.71 7.79Q28.95 7.13 29.41 6.64L29.41 6.64L29.41 6.64Q29.86 6.16 30.52 5.89L30.52 5.89L30.52 5.89Q31.18 5.61 32.00 5.61L32.00 5.61L32.00 5.61Q32.91 5.61 33.59 5.75L33.59 5.75L33.59 5.75Q34.27 5.88 34.73 5.99L34.73 5.99L34.73 12.49L34.73 12.49Q34.73 14.17 33.87 14.92L33.87 14.92L33.87 14.92Q33.00 15.68 31.23 15.68L31.23 15.68L31.23 15.68Q30.55 15.68 29.94 15.57L29.94 15.57L29.94 15.57Q29.33 15.46 28.88 15.30L28.88 15.30L29.12 14.17L29.12 14.17Q29.51 14.32 30.08 14.44L30.08 14.44L30.08 14.44Q30.65 14.56 31.26 14.56L31.26 14.56L31.26 14.56Q32.42 14.56 32.94 14.10L32.94 14.10L32.94 14.10Q33.45 13.64 33.45 12.63L33.45 12.63ZM33.43 11.17L33.43 6.92L33.43 6.92Q33.24 6.86 32.91 6.81L32.91 6.81L32.91 6.81Q32.58 6.76 32.02 6.76L32.02 6.76L32.02 6.76Q30.97 6.76 30.40 7.45L30.40 7.45L30.40 7.45Q29.83 8.13 29.83 9.27L29.83 9.27L29.83 9.27Q29.83 9.90 30.00 10.35L30.00 10.35L30.00 10.35Q30.16 10.79 30.43 11.09L30.43 11.09L30.43 11.09Q30.70 11.38 31.06 11.52L31.06 11.52L31.06 11.52Q31.42 11.66 31.79 11.66L31.79 11.66L31.79 11.66Q32.31 11.66 32.75 11.52L32.75 11.52L32.75 11.52Q33.18 11.37 33.43 11.17L33.43 11.17ZM44.06 13.05L42.92 13.05L42.92 13.05Q42.53 12.04 42.09 10.75L42.09 10.75L42.09 10.75Q41.65 9.45 41.29 8.05L41.29 8.05L41.29 8.05Q40.92 9.45 40.49 10.75L40.49 10.75L40.49 10.75Q40.05 12.04 39.66 13.05L39.66 13.05L38.53 13.05L38.53 13.05Q37.88 11.61 37.27 9.76L37.27 9.76L37.27 9.76Q36.65 7.91 36.11 5.77L36.11 5.77L37.51 5.77L37.51 5.77Q37.65 6.43 37.84 7.20L37.84 7.20L37.84 7.20Q38.04 7.97 38.26 8.74L38.26 8.74L38.26 8.74Q38.47 9.51 38.71 10.22L38.71 10.22L38.71 10.22Q38.95 10.93 39.16 11.47L39.16 11.47L39.16 11.47Q39.40 10.81 39.63 10.07L39.63 10.07L39.63 10.07Q39.86 9.34 40.07 8.59L40.07 8.59L40.07 8.59Q40.28 7.84 40.47 7.12L40.47 7.12L40.47 7.12Q40.66 6.40 40.80 5.77L40.80 5.77L41.87 5.77L41.87 5.77Q42 6.40 42.18 7.12L42.18 7.12L42.18 7.12Q42.36 7.84 42.57 8.59L42.57 8.59L42.57 8.59Q42.78 9.34 43.02 10.07L43.02 10.07L43.02 10.07Q43.25 10.81 43.48 11.47L43.48 11.47L43.48 11.47Q43.69 10.93 43.92 10.22L43.92 10.22L43.92 10.22Q44.16 9.51 44.38 8.74L44.38 8.74L44.38 8.74Q44.60 7.97 44.80 7.20L44.80 7.20L44.80 7.20Q45.00 6.43 45.14 5.77L45.14 5.77L46.48 5.77L46.48 5.77Q45.93 7.91 45.32 9.76L45.32 9.76L45.32 9.76Q44.70 11.61 44.06 13.05L44.06 13.05ZM54.28 9.41L54.28 9.41L54.28 9.41Q54.28 10.28 54.03 10.98L54.03 10.98L54.03 10.98Q53.77 11.68 53.32 12.18L53.32 12.18L53.32 12.18Q52.86 12.68 52.23 12.96L52.23 12.96L52.23 12.96Q51.60 13.23 50.86 13.23L50.86 13.23L50.86 13.23Q50.12 13.23 49.49 12.96L49.49 12.96L49.49 12.96Q48.86 12.68 48.41 12.18L48.41 12.18L48.41 12.18Q47.95 11.68 47.70 10.98L47.70 10.98L47.70 10.98Q47.45 10.28 47.45 9.41L47.45 9.41L47.45 9.41Q47.45 8.55 47.70 7.85L47.70 7.85L47.70 7.85Q47.95 7.14 48.41 6.64L48.41 6.64L48.41 6.64Q48.86 6.13 49.49 5.86L49.49 5.86L49.49 5.86Q50.12 5.59 50.86 5.59L50.86 5.59L50.86 5.59Q51.60 5.59 52.23 5.86L52.23 5.86L52.23 5.86Q52.86 6.13 53.32 6.64L53.32 6.64L53.32 6.64Q53.77 7.14 54.03 7.85L54.03 7.85L54.03 7.85Q54.28 8.55 54.28 9.41ZM52.92 9.41L52.92 9.41L52.92 9.41Q52.92 8.18 52.37 7.46L52.37 7.46L52.37 7.46Q51.81 6.73 50.86 6.73L50.86 6.73L50.86 6.73Q49.91 6.73 49.36 7.46L49.36 7.46L49.36 7.46Q48.80 8.18 48.80 9.41L48.80 9.41L48.80 9.41Q48.80 10.64 49.36 11.36L49.36 11.36L49.36 11.36Q49.91 12.08 50.86 12.08L50.86 12.08L50.86 12.08Q51.81 12.08 52.37 11.36L52.37 11.36L52.37 11.36Q52.92 10.64 52.92 9.41ZM58.48 12.10L58.30 13.19L58.30 13.19Q57.09 13.16 56.59 12.67L56.59 12.67L56.59 12.67Q56.08 12.18 56.08 11.14L56.08 11.14L56.08 2.41L57.39 2.18L57.39 10.93L57.39 10.93Q57.39 11.26 57.44 11.47L57.44 11.47L57.44 11.47Q57.50 11.68 57.62 11.80L57.62 11.80L57.62 11.80Q57.75 11.93 57.96 11.99L57.96 11.99L57.96 11.99Q58.17 12.05 58.48 12.10L58.48 12.10ZM62.78 2.18L62.78 2.18L62.78 2.18Q63.35 2.18 63.76 2.27L63.76 2.27L63.76 2.27Q64.18 2.35 64.34 2.42L64.34 2.42L64.11 3.54L64.11 3.54Q63.94 3.46 63.63 3.38L63.63 3.38L63.63 3.38Q63.32 3.30 62.87 3.30L62.87 3.30L62.87 3.30Q61.96 3.30 61.60 3.80L61.60 3.80L61.60 3.80Q61.24 4.30 61.24 5.14L61.24 5.14L61.24 5.77L64.04 5.77L64.04 6.86L61.24 6.86L61.24 13.05L59.93 13.05L59.93 5.11L59.93 5.11Q59.93 3.71 60.62 2.95L60.62 2.95L60.62 2.95Q61.31 2.18 62.78 2.18Z"></path></g><defs data-v-423bf9ae=""><linearGradient data-v-423bf9ae="" gradientTransform="rotate(25)" id="8ecbfe83-697f-4b9a-8398-5ae225e7ce65" x1="0%" y1="0%" x2="100%" y2="0%"><stop data-v-423bf9ae="" offset="0%" style="stop-color: rgb(40, 134, 66); stop-opacity: 1;"></stop><stop data-v-423bf9ae="" offset="100%" style="stop-color: rgb(39, 253, 253); stop-opacity: 1;"></stop></linearGradient></defs><g data-v-423bf9ae="" id="7b556ca4-4124-4427-8e48-4b6ea97f9115" transform="matrix(1.078755611843533,0,0,1.078755611843533,-3.146287918596464,-1.514073129907544)" stroke="none" fill="url(#8ecbfe83-697f-4b9a-8398-5ae225e7ce65)"><path d="M54.807 3.184a2.024 2.024 0 0 0-1.896-1.318H9.659c-.845 0-1.601.526-1.896 1.318C3.998 13.32 2.78 24.536 4.142 36.52c1.112 9.783 3.714 17.89 5.113 22.245l.011.035c2.74 8.537 4.922 37.983 4.944 38.28a2.022 2.022 0 0 0 2.017 1.874h30.116a2.021 2.021 0 0 0 2.017-1.874c.021-.297 2.204-29.743 4.945-38.28l.011-.035c1.397-4.356 4-12.462 5.111-22.245 1.362-11.984.145-23.2-3.62-33.336zM11.083 5.911h40.405c1.783 5.171 2.875 10.642 3.269 16.368l-46.946.055c.39-5.746 1.482-11.235 3.272-16.423z"></path></g><!----></svg>